<?xml version="1.0" encoding="UTF-8"?>
<svg id="Ebene_1" data-name="Ebene 1" xmlns="http://www.w3.org/2000/svg" viewBox="0 0 159.39 120.04">
  <defs>
    <style>
      .cls-1 {
        fill: #294e35;
      }

      .cls-1, .cls-2, .cls-3, .cls-4, .cls-5, .cls-6, .cls-7, .cls-8, .cls-9, .cls-10, .cls-11, .cls-12, .cls-13, .cls-14 {
        stroke-width: 0px;
      }

      .cls-2 {
        fill: #87be5c;
      }

      .cls-3 {
        fill: #85bc5a;
      }

      .cls-4 {
        fill: #3e893a;
      }

      .cls-5 {
        fill: #294e36;
      }

      .cls-6 {
        fill: #284d34;
      }

      .cls-7 {
        fill: #2b5038;
      }

      .cls-8 {
        fill: #84bc59;
      }

      .cls-9 {
        fill: #2d5239;
      }

      .cls-10 {
        fill: #82bb55;
      }

      .cls-11 {
        fill: #d5e8c6;
      }

      .cls-12 {
        fill: #86bd5b;
      }

      .cls-13 {
        fill: #85bd5a;
      }

      .cls-14 {
        fill: #254c33;
      }
    </style>
  </defs>
  <path class="cls-1" d="M159.39,98.38c-.07.3-.14.6-.22.9-.03.13-.06.26-.1.4h-10.53v-18.86h10.11c.12.49.25.99.37,1.47-.02.05-.03.06-.04.07,0,0-.02.01-.03.01-.04,0-.07.01-.11.01-2.86,0-5.71,0-8.57,0-.01,0-.02,0-.06.01v6.85h7.45v1.56c-.6,0-1.21,0-1.83,0-.63,0-1.26,0-1.9,0h-3.74v7.25c.07,0,.14.02.2.02,2.99,0,5.98,0,8.97,0v.29Z"/>
  <path class="cls-3" d="M156.25,119.96c-.58-.12-1.12-.32-1.58-.71-.15-.13-.3-.25-.45-.37.19-.32.42-.48.65-.69.15.13.28.25.42.36.57.47,1.23.63,1.95.53.81-.12,1.32-.82,1.2-1.63-.05-.34-.22-.63-.53-.78-.29-.14-.61-.25-.91-.36-.48-.17-.97-.31-1.44-.5-1.37-.56-1.28-2.31-.59-3.05.47-.5,1.04-.78,1.73-.83.88-.06,1.69.13,2.4.68.06.04.11.09.2.17-.17.23-.34.46-.53.7-.16-.11-.29-.21-.43-.31-.61-.4-1.26-.58-1.97-.36-.48.15-.82.45-.93.97-.08.36.01.67.27.93.31.31.72.45,1.13.57.42.12.85.23,1.25.39.49.2.91.51,1.15,1.01.07.14.12.28.17.42v.88s-.05.06-.05.09c-.06.6-.41,1.02-.86,1.38-.35.28-.77.4-1.2.5h-1.02Z"/>
  <path class="cls-11" d="M128.97,119.97s0,.05,0,.07h-1.02s0-.05,0-.08h1.02Z"/>
  <path class="cls-14" d="M79.05,69.65c-.68,0-1.36,0-2.04,0-.15,0-.31.03-.42-.14-.03-.05-.12-.09-.19-.1-.67-.08-1.27-.36-1.83-.7-.83-.51-1.59-1.13-2.17-1.93-.28-.39-.54-.79-.76-1.21-.2-.37-.37-.76-.47-1.18-.12-.52-.32-1.02-.46-1.53-.08-.31-.11-.63-.19-.94-.08-.31-.18-.61-.27-.92,0-.02-.03-.04-.04-.06-.07-.31-.13-.63-.2-.94-.07-.29-.12-.59-.23-.86-.07-.17-.11-.34-.11-.52,0-.14-.06-.28-.08-.42-.02-.1-.05-.21-.05-.32,0-.38,0-.75,0-1.13,0-.28-.03-.56.12-.82.04-.08.02-.19.03-.29.01-.1.02-.19.05-.28.1-.29.18-.59.31-.87.14-.31.31-.61.49-.91.25-.4.5-.8.77-1.19.41-.6.92-1.12,1.47-1.59.47-.41,1.01-.7,1.53-1.02.13-.08.28-.12.43-.17.34-.1.67-.21,1-.34.26-.1.57-.09.83-.2.26-.11.56-.12.79-.29.03-.02.07-.02.1-.03.53-.11,1.06-.25,1.56-.48.03-.01.07-.02.1-.03.51-.08.97-.28,1.44-.46.5-.19.97-.41,1.43-.68,1.27-.73,2.27-1.72,2.99-3,.31-.55.6-1.11.78-1.71.09-.3.31-.58.24-.93.23-.49.14-1.02.23-1.53.04-.19.02-.4,0-.6-.03-.4-.01-.81-.11-1.19-.08-.33-.08-.68-.26-.99-.1-.16-.13-.36-.19-.54-.18-.54-.35-1.08-.55-1.61-.14-.38-.31-.74-.45-1.12-.13-.35-.21-.73-.38-1.06-.2-.42-.44-.82-.7-1.2-.6-.87-1.36-1.6-2.24-2.19-.45-.29-.92-.54-1.4-.78-.5-.25-1.01-.47-1.54-.66-.28-.1-.6-.13-.9-.18-.09-.02-.21,0-.29-.04-.28-.16-.59-.13-.89-.13-.45,0-.9-.01-1.35,0-.25.01-.5.08-.75.12-.11.02-.21.05-.32.05-.22.01-.43-.03-.63.12-.06.04-.17.02-.25.03-.13.03-.25.06-.38.1-.06.02-.11.05-.17.07-.35.07-.71.13-1.06.2-.34.08-.67.17-1,.26-.24.06-.49.15-.73.17-.47.04-.89.26-1.38.23-.63-.04-1.26,0-1.89-.01-.18,0-.35-.06-.53-.1-.25-.06-.51-.13-.76-.21-.35-.11-.7-.22-1.03-.37-.42-.19-.82-.41-1.21-.64-.67-.4-1.2-.95-1.63-1.6-.27-.41-.45-.87-.63-1.32-.11-.27-.13-.58-.19-.87-.02-.08-.05-.16-.08-.24-.03-.09-.09-.17-.1-.27-.07-.36-.15-.71-.29-1.06-.09-.23-.12-.48-.18-.72-.04-.16-.09-.32-.14-.48-.01-.03-.04-.07-.04-.1-.05-.43-.12-.86-.15-1.29-.01-.15.05-.31.08-.46.01-.06.04-.12.05-.17.06-.88.52-1.57,1.06-2.22.45-.54.92-1.04,1.51-1.44.37-.25.77-.45,1.19-.63.29-.13.61-.1.88-.27.04-.02.09-.03.14-.04.43-.06.85-.12,1.28-.18.09-.01.19-.05.28-.08.08-.02.16-.07.24-.08.44-.07.89-.09,1.31-.22.4-.13.84-.05,1.23-.26.09-.05.21-.03.32-.04.14-.02.28-.06.42-.09.05-.01.09-.04.14-.05.48-.02.97-.03,1.45-.04.08,0,.17.04.25.02.46-.08.9.07,1.31.2.47.15.94.33,1.38.59.31.19.63.36.93.58.82.62,1.4,1.41,1.77,2.37.18.46.33.93.51,1.4.14.39.3.77.44,1.16.14.39.21.8.39,1.17.3.64.62,1.26,1.05,1.82.6.79,1.34,1.43,2.16,1.95.55.35,1.13.66,1.76.87.45.15.9.3,1.35.45.08.02.17.02.25.02.16.01.32,0,.47.05.55.16,1.11.12,1.66.08.41-.03.81-.11,1.22-.15.36-.03.71-.19,1.06-.28.07-.02.15,0,.22-.02.14-.03.27-.07.41-.11.05-.01.09-.03.14-.04.33-.06.66-.11.98-.18.31-.07.62-.17.93-.25.05-.01.09-.05.13-.05.44-.07.87-.16,1.31-.19.39-.03.78,0,1.17,0,.23,0,.45.04.67.11.27.08.55.13.83.21.4.11.76.28,1.12.45.38.19.77.38,1.12.62.38.26.75.56,1.09.89.62.6,1.11,1.3,1.44,2.1.28.69.63,1.35.93,2.03.29.67.62,1.33.82,2.03.11.35.27.72.23,1.12-.03.32,0,.66,0,.98,0,.24,0,.47-.12.71-.11.2-.09.46-.18.69-.17.44-.37.85-.6,1.25-.3.52-.69.98-1.16,1.36-.38.31-.79.6-1.26.79-.33.13-.67.23-.99.35-.37.14-.75.21-1.12.33-.28.09-.55.19-.83.28-.19.06-.39.06-.59.16-.26.12-.57.15-.86.22-.22.06-.44.12-.65.2-.45.19-.89.39-1.33.61-.87.42-1.6,1.01-2.21,1.75-.5.61-.9,1.28-1.22,2-.17.38-.34.77-.43,1.16-.1.42-.33.84-.24,1.3.02.09,0,.19-.03.29-.14.48-.1.96,0,1.44.03.14.04.29.04.43,0,.27,0,.53.13.78.04.07.05.16.06.25.03.37.17.71.29,1.06.14.41.24.84.38,1.25.14.4.32.79.47,1.19.07.18.13.36.18.54.08.31.18.61.32.9.1.2.13.43.2.65.09.31.18.61.28.92,0,.01.01.02.01.03.1.88.34,1.76.16,2.66-.04.22-.06.45-.09.68-.03.16-.07.33-.11.49-.03.12-.06.23-.08.35-.08.38-.14.78-.37,1.11-.58.82-1.18,1.63-1.93,2.3-.49.44-.97.9-1.5,1.28-.46.33-.97.59-1.47.85-.21.11-.47.11-.68.23-.22.12-.46.15-.67.26-.18.09-.4.14-.6.22-.26.11-.53.21-.79.29-.37.12-.73.27-1.1.38-.05.01-.11.01-.14.04-.24.26-.55.21-.84.21-.58,0-1.17,0-1.75,0Z"/>
  <path class="cls-10" d="M62.66.02C63.1.01,63.54,0,63.97,0c1.24,0,2.47,0,3.71,0,.13.12.28.16.45.2.39.1.78.18,1.12.45.63.48,1.21,1,1.71,1.62.28.36.52.75.67,1.18.16.47.32.94.49,1.4.14.39.34.76.44,1.16.08.36.33.68.24,1.08.17.47,0,.94-.02,1.4,0,.25-.14.5-.23.75-.34.97-1.12,1.53-1.91,2.09-.46.33-1,.51-1.49.78-.33-.02-.6.23-.94.2-.17-.01-.34.12-.52.13-.45.03-.86.25-1.32.21-.37.25-.83.08-1.22.29-.13.07-.31.02-.46.05-.4.09-.79.22-1.19.29-.65.13-1.25.39-1.84.67-.64.3-1.24.68-1.78,1.13-.65.55-1.21,1.19-1.63,1.93-.17.3-.3.62-.43.94-.12.3-.25.6-.3.92-.06.31-.05.63-.05.94,0,.39,0,.78.02,1.17.02.26.09.52.16.77.09.32.21.64.29.96.08.3.14.6.2.91,0,.05,0,.1.01.14.19.42.23.88.36,1.31.46,1.51,1.26,2.79,2.57,3.72.67.48,1.39.89,2.15,1.2.45.18.93.31,1.41.42.45.11.92.07,1.35.25.15.06.33.06.5.06.34,0,.68,0,1.02,0,.73.02,1.45,0,2.17-.17.41-.1.81-.21,1.21-.31.37-.09.75-.15,1.12-.24.32-.08.64-.18.96-.27.05-.01.09-.04.14-.04.38,0,.72-.16,1.07-.3.02,0,.04-.03.07-.03.74-.03,1.47-.35,2.22-.05.03.01.07.03.11.02.43-.09.81.13,1.2.22.8.19,1.55.53,2.17,1.07.69.61,1.34,1.26,1.8,2.08.25.45.47.91.62,1.4.12.41.3.8.46,1.2.07.18.12.36.18.54.16.45.32.9.47,1.35.08.26.15.52.21.79.1.38.2.77.27,1.15.05.26.08.53.07.79-.02.54-.15,1.06-.29,1.59-.36,1.27-1.2,2.2-2.12,3.07-.58.54-1.25.96-1.98,1.27-.34.14-.66.31-1.04.35-.2.02-.38.12-.58.19-.28.09-.57.19-.85.28-.18.06-.36.11-.55.15-.3.08-.6.14-.9.22-.27.08-.54.19-.82.26-.33.09-.67.16-1.01.24-.05.01-.1,0-.14.01-.67.26-1.37.09-2.06.13-.12,0-.24-.04-.36-.06-.13-.03-.26-.05-.38-.08-.11-.02-.22-.02-.32-.05-.32-.1-.64-.18-.95-.31-.35-.15-.7-.32-1.02-.52-.53-.35-1.03-.76-1.48-1.22-.78-.78-1.41-1.67-1.87-2.67-.14-.3-.28-.6-.32-.94-.04-.33-.18-.64-.29-.96-.07-.21-.06-.44-.16-.66-.13-.27-.13-.6-.2-.91-.02-.1-.06-.21-.1-.31-.03-.08-.07-.15-.09-.24-.18-.94-.59-1.78-1.12-2.57-.31-.47-.68-.88-1.08-1.26-.58-.54-1.24-.96-1.94-1.32-.49-.25-.98-.51-1.5-.67-.48-.15-.98-.28-1.48-.39-.55-.12-1.1-.13-1.65-.16-.38-.03-.77.03-1.16.04-.18,0-.37,0-.55.01-.17.02-.33.06-.49.09-.11.02-.21.03-.32.05-.16.03-.32.08-.48.12-.03,0-.07.03-.1.04-.32.05-.64.1-.95.16-.08.01-.16.04-.24.07-.07.03-.13.08-.2.09-.35.07-.71.12-1.06.2-.34.08-.66.19-1,.28-.02,0-.04.02-.07.03-.41.07-.83.13-1.24.2-.12.02-.24.04-.35.06-.17.03-.33.08-.5.08-.4.01-.8,0-1.2,0-.27,0-.53,0-.79-.11-.09-.04-.21-.02-.32-.04-.19-.03-.37-.08-.56-.11-.08-.02-.16-.04-.25-.05-.06,0-.13,0-.18-.01-.25-.09-.5-.22-.76-.29-.48-.13-.81-.47-1.17-.76-.58-.46-1.05-1.03-1.43-1.67-.17-.29-.31-.61-.41-.94-.15-.5-.26-.99-.3-1.5-.01-.17-.09-.32-.12-.49-.03-.16-.04-.33-.06-.5-.02-.14,0-.32-.07-.42-.16-.21-.14-.43-.14-.65,0-.96,0-1.92,0-2.88,0-.28-.09-.59.2-.8,0-.26.18-.44.28-.65.34-.67.84-1.23,1.38-1.75.78-.74,1.65-1.33,2.66-1.7.37-.14.72-.29,1.12-.35.36-.06.72-.23,1.08-.26.46-.03.89-.2,1.35-.24.13-.01.26-.05.38-.08.04,0,.07-.04.1-.03.44.04.84-.2,1.28-.2.12,0,.24-.04.35-.07.12-.02.23-.05.35-.08.16-.04.32-.08.48-.12.06-.02.11-.05.17-.06.66-.09,1.26-.35,1.85-.63.47-.22.96-.44,1.39-.74.66-.45,1.27-.96,1.76-1.61.36-.47.68-.96.93-1.49.12-.24.14-.53.24-.78.2-.5.19-1.01.19-1.53,0-.3,0-.61-.06-.9-.06-.31-.18-.61-.26-.92-.06-.23-.08-.46-.17-.69-.12-.31-.14-.65-.22-.97-.08-.32-.22-.64-.26-.97-.05-.46-.13-.93.06-1.39.08-.21.13-.43.2-.65.37-1.07,1.06-1.87,2.03-2.45.46-.27.93-.53,1.44-.67.32-.09.61-.31.97-.23.45-.26.98-.05,1.45-.27.16-.08.38-.03.58-.04.18,0,.37,0,.49-.18Z"/>
  <path class="cls-4" d="M93.26,23.25c-.36,0-.73,0-1.09,0-.11,0-.21.04-.32.07-.05.01-.09.04-.13.05-.37.08-.75.14-1.12.23-.34.08-.67.18-1,.27-.03,0-.07.03-.1.04-.32.06-.63.11-.95.17-.13.02-.26.07-.38.11-.03.01-.06.05-.1.05-.43.07-.85.16-1.28.19-.45.03-.9,0-1.35,0-.29,0-.56-.02-.85-.13-.25-.09-.53-.15-.79-.21-.36-.09-.7-.25-1.02-.41-.43-.21-.84-.45-1.23-.73-.68-.49-1.19-1.12-1.61-1.83-.31-.52-.5-1.1-.7-1.67-.25-.71-.54-1.39-.78-2.1-.33-.95-.54-1.94-.33-2.94.19-.91.7-1.67,1.39-2.3.46-.42.98-.73,1.55-.95.29-.11.59-.27.94-.22.1.01.21-.05.31-.07.19-.04.38-.06.57-.1.27-.05.54-.13.81-.15.41-.02.78-.25,1.21-.19.37-.23.84-.07,1.22-.3.58-.02,1.13-.3,1.72-.2.17.03.33.06.5.1.11.02.21.07.31.09,1.61.24,2.93,1,3.96,2.24.5.6.87,1.27,1.14,2.01.11.3.26.58.39.88.22.5.41,1,.65,1.49.37.76.84,1.45,1.44,2.06.6.61,1.25,1.17,1.99,1.61.4.24.81.48,1.25.64.35.13.69.32,1.03.46.17.07.36.15.54.15.45,0,.84.27,1.31.23.6-.04,1.21,0,1.82-.02.16,0,.33-.06.49-.1.06-.01.11-.05.17-.06.34-.06.68-.12,1.02-.18.08-.01.16-.05.24-.08.06-.02.11-.06.16-.07.33-.06.66-.11.99-.17.09-.02.18-.06.27-.09.06-.02.11-.07.16-.08.81-.12,1.61-.33,2.43-.2.13.02.27-.01.4,0,.43.07.85.16,1.27.32.41.15.81.3,1.19.51.36.2.74.39,1.08.62.78.52,1.43,1.18,1.93,1.98.28.45.52.91.78,1.37.33.61.67,1.23.98,1.85.24.48.48.96.67,1.46.08.21.07.44.24.63.04.05.02.16.02.25,0,.53,0,1.07,0,1.6,0,.15,0,.29-.12.4-.05.04-.07.13-.09.19-.25,1.02-.8,1.85-1.63,2.5-.3.24-.63.41-.96.59-.23.13-.52.15-.78.23-.27.08-.54.18-.81.26-.25.08-.5.14-.75.22-.35.11-.7.23-1.05.32-.19.05-.39.09-.58.15-.77.22-1.47.59-2.1,1.06-.58.43-1.03.99-1.4,1.6-.32.52-.55,1.08-.73,1.67-.15.47-.25.93-.33,1.42-.08.51-.12,1.01-.12,1.51,0,.14.04.29.06.43.03.19.05.38.08.57.03.17.07.35.12.52.07.23.09.46.17.69.2.56.4,1.12.68,1.64.14.27.24.57.36.85.19.45.38.89.58,1.33.2.46.4.91.59,1.37.12.3.22.6.32.91.03.09.03.19.04.29,0,.07-.02.16.01.22.19.33.12.68.13,1.03,0,.41,0,.83,0,1.24,0,.31-.05.62-.11.93-.08.38-.19.72-.38,1.06-.35.67-.79,1.26-1.3,1.8-.55.58-1.18,1.06-1.87,1.47-.45.27-.94.43-1.43.6-.24.08-.47.21-.71.31-.16.07-.33.12-.5.18-.46.17-.92.39-1.4.5-.38.09-.75.28-1.17.21-.09-.02-.19,0-.29.04-.58.19-1.18.08-1.77.1-.46-.22-1-.04-1.44-.3-.36.07-.64-.17-.97-.24-.4-.08-.76-.33-1.09-.59-1.12-.84-2.08-1.82-2.76-3.06-.28-.51-.5-1.05-.69-1.6-.16-.46-.34-.91-.48-1.37-.18-.55-.43-1.08-.63-1.62-.14-.39-.25-.79-.38-1.19-.1-.29-.2-.58-.3-.88,0-.02-.02-.05-.02-.07.03-.67-.29-1.31-.15-1.98.03-.14.05-.28.08-.43.02-.08.06-.16.07-.25.11-1.23.72-2.23,1.48-3.16.54-.67,1.23-1.15,1.97-1.54.34-.18.72-.35,1.13-.41.25-.04.49-.17.74-.23.31-.07.59-.24.92-.27.18-.02.36-.11.54-.16.27-.09.54-.17.82-.26.23-.08.47-.16.7-.23.23-.07.47-.11.69-.2.37-.16.75-.32,1.1-.53.84-.5,1.56-1.13,2.09-1.96.32-.5.62-1.01.76-1.59.25-.25.11-.64.31-.91.01-.02.02-.05.02-.07-.02-.65.21-1.3.03-1.95-.02-.06,0-.12,0-.18,0-.56-.16-1.08-.31-1.62-.26-.88-.69-1.69-1.04-2.53-.35-.83-.74-1.65-1.16-2.44-.61-1.16-1.46-2.15-2.52-2.93-.52-.38-1.08-.71-1.67-.97-.49-.22-1.02-.38-1.53-.54-.37-.12-.76-.23-1.14-.3-.35-.05-.7-.03-1.05-.04-.09,0-.17,0-.26,0,0,0,0,0,0,.01Z"/>
  <path class="cls-5" d="M146.84,99.73c-.56.13-1.08.24-1.64.37-.93-4.74-1.86-9.46-2.79-14.18-.03,0-.05,0-.08-.01-1.93,4.71-3.86,9.43-5.82,14.21-1.96-4.78-3.89-9.5-5.82-14.21-.02,0-.05,0-.07,0-.93,4.72-1.85,9.44-2.79,14.2-.55-.12-1.08-.24-1.64-.36,1.3-6.5,2.6-12.98,3.9-19.46.61,1.27,1.12,2.57,1.65,3.87.53,1.29,1.05,2.58,1.58,3.88.53,1.3,1.06,2.61,1.59,3.91.53,1.29,1.05,2.58,1.61,3.96,2.15-5.26,4.27-10.45,6.38-15.63.02,0,.05,0,.07,0,1.29,6.48,2.58,12.95,3.88,19.47Z"/>
  <path class="cls-5" d="M37.59,99.68v-18.86c.09,0,.16-.02.23-.02,1.64.03,3.28.02,4.92.09,1.73.07,3.38.49,4.87,1.43,2.19,1.38,3.48,3.38,3.94,5.91.31,1.72.26,3.44-.25,5.12-.83,2.7-2.64,4.5-5.24,5.54-1.32.53-2.71.77-4.13.8-1.37.03-2.75,0-4.12,0-.07,0-.14-.01-.22-.02ZM39.26,98.15c.14,0,.26,0,.38,0,.72,0,1.43,0,2.15-.01,1.05-.02,2.08-.15,3.08-.49,2.36-.8,4.01-2.34,4.76-4.75.5-1.61.51-3.26.12-4.9-.4-1.69-1.32-3.04-2.71-4.06-1.3-.95-2.79-1.42-4.38-1.53-1.08-.07-2.16-.05-3.24-.07-.05,0-.09.01-.15.02v15.78Z"/>
  <path class="cls-5" d="M17.69,91.79c1.96,2.44,3.88,4.82,5.81,7.23-.51.32-1.01.64-1.54.97-2.4-3.14-4.79-6.28-7.19-9.42-.02,0-.05.02-.07.03v9.11c-.56.12-1.09.23-1.65.34v-19.24c.1,0,.19,0,.29,0,1.02,0,2.04,0,3.06,0,.98.01,1.93.19,2.82.63,1.78.89,2.74,2.34,2.92,4.31.08.91.02,1.83-.31,2.69-.69,1.82-2,2.91-3.9,3.3-.06.01-.11.02-.25.05ZM14.72,82.41v8.03c.51,0,1,.02,1.48,0,.43-.02.88-.05,1.3-.16,1.39-.35,2.34-1.18,2.72-2.6.15-.56.16-1.13.12-1.7-.12-1.79-1.23-3.05-2.99-3.43-.87-.18-1.74-.13-2.64-.14Z"/>
  <path class="cls-5" d="M96.95,92.12h-8.4c-1.33,2.58-2.66,5.17-4,7.78-.53-.15-1.04-.3-1.6-.46,3.3-6.4,6.59-12.78,9.91-19.23,3.24,6.42,6.44,12.77,9.67,19.18-.55.17-1.07.33-1.64.51-1.31-2.59-2.61-5.18-3.93-7.78ZM96.17,90.51c-1.14-2.26-2.25-4.49-3.39-6.74-.49.79-3.29,6.49-3.32,6.74h6.7Z"/>
  <path class="cls-1" d="M24.88,99.67v-18.85h10.12c.13.5.25,1,.39,1.55h-8.83v6.89h7.46v1.56c-.6,0-1.21,0-1.83,0-.63,0-1.26,0-1.9,0h-3.74v7.27h9.23c-.12.55-.24,1.06-.36,1.59h-10.55Z"/>
  <path class="cls-5" d="M.9,80.8c.13,0,.22,0,.32,0,1.02,0,2.04,0,3.06,0,.94,0,1.87.15,2.74.52,2.09.9,3.31,2.48,3.62,4.74.14,1.03.11,2.07-.19,3.07-.65,2.16-2.13,3.48-4.28,4.07-.65.18-1.31.25-1.98.24-.53,0-1.06,0-1.63,0v6.27c-.56.11-1.09.22-1.65.33v-19.24ZM2.56,91.82c.56,0,1.09.02,1.62,0,.46-.02.93-.05,1.37-.15,1.64-.37,2.75-1.33,3.23-2.96.2-.68.22-1.39.18-2.1-.12-2.11-1.46-3.66-3.53-4.04-.57-.1-1.16-.11-1.74-.14-.37-.02-.75,0-1.13,0v9.41Z"/>
  <path class="cls-5" d="M72.35,97.38c-.11.71-.21,1.34-.31,1.96-2.98,1.4-8.03,1.16-11.22-2.59-3.06-3.6-3.24-8.72-.42-12.49,2.97-3.96,7.97-4.64,11.56-3.19.11.66.23,1.34.35,2.04-.44-.22-.83-.43-1.25-.6-.96-.4-1.97-.54-3-.51-2.89.09-5.12,1.36-6.71,3.76-.99,1.49-1.31,3.17-1.23,4.94.05,1.23.31,2.41.91,3.49,1.33,2.4,3.34,3.87,6.09,4.25,1.66.23,3.24-.08,4.74-.82.14-.07.28-.14.48-.24Z"/>
  <path class="cls-6" d="M78.38,82.43h-5.21c.15-.57.28-1.09.42-1.61h11.31v1.61c-.38,0-.78,0-1.17,0-.4,0-.8,0-1.2,0h-2.42v17.27c-.56.08-1.09.16-1.6.24-.04-.03-.05-.03-.06-.04,0,0-.02-.02-.02-.03,0-.02-.01-.05-.01-.07,0-5.76,0-11.52-.01-17.27,0-.01,0-.02-.03-.09Z"/>
  <path class="cls-9" d="M114.66,76.79v27.55h-1.18v-27.55h1.18Z"/>
  <path class="cls-7" d="M54.22,80.79c.57-.08,1.12-.16,1.69-.24v19.16c-.55.08-1.11.16-1.69.24v-19.15Z"/>
  <path class="cls-12" d="M81.04,113.57v-4.53c.27-.04.53-.07.78-.1.09.29.12,9.99.04,10.81-.26.03-.52.07-.82.11v-1.45c-.6.6-1.22,1.12-2.03,1.37-.81.25-1.63.22-2.44-.02-.82-.25-1.47-.75-1.98-1.42-1.21-1.61-.96-4.02.52-5.37,1.34-1.22,4.2-1.67,5.93.6ZM74.73,115.94c-.08,1.66,1.43,3.16,3.14,3.15,1.77-.02,3.14-1.4,3.16-3.18.02-1.7-1.5-3.14-3.17-3.13-1.63,0-3.21,1.44-3.13,3.16Z"/>
  <path class="cls-13" d="M111.21,113.49c.19-.17.33-.29.46-.43,2.09-2.08,5.8-1.13,6.57,1.72.72,2.65-.94,4.67-2.95,5.07-1.36.27-2.61.05-3.68-.9-.78-.7-1.17-1.59-1.26-2.63-.02-.17-.01-.34-.01-.51,0-2.11,0-4.23,0-6.34v-.43c.28-.04.54-.07.85-.11.02.78,0,1.53,0,2.28,0,.75,0,1.49,0,2.28ZM111.22,115.94c-.08,1.65,1.32,3.16,3.12,3.15,1.78,0,3.15-1.39,3.17-3.17.02-1.7-1.5-3.15-3.16-3.14-1.69,0-3.21,1.49-3.13,3.16Z"/>
  <path class="cls-8" d="M38.45,119.76c-.29.03-.54.06-.81.09v-7.73c.26-.04.51-.07.81-.11v1.1s.05.03.07.04c.56-.79,1.26-1.27,2.26-1.22,1,.05,1.63.6,2.07,1.51.09-.13.16-.24.24-.34.38-.54.86-.97,1.53-1.1,1.34-.27,2.36.27,2.76,1.52.11.33.17.69.17,1.04.02,1.66,0,3.33,0,4.99,0,.06,0,.12-.02.21-.25.03-.5.07-.8.1,0-.15-.01-.28-.01-.4,0-1.26.01-2.53,0-3.79,0-.5-.07-.99-.12-1.49-.02-.15-.07-.31-.13-.45-.3-.86-.98-1.18-1.85-1.01-.66.12-1.12.53-1.37,1.14-.13.33-.22.7-.22,1.06-.03,1.47-.01,2.94-.02,4.41,0,.13,0,.26,0,.44-.28.03-.54.06-.85.1,0-.16-.02-.29-.02-.42,0-1.46,0-2.92-.01-4.37,0-.38-.06-.78-.16-1.15-.33-1.23-1.65-1.65-2.65-.86-.48.38-.76.88-.83,1.49-.04.3-.05.61-.05.91,0,1.29,0,2.58,0,3.86v.45Z"/>
  <path class="cls-13" d="M148.53,113.8c-2.01,1.19-3.99,2.35-5.99,3.53.36.69.86,1.19,1.56,1.47.88.36,1.76.32,2.62-.06.41-.18.78-.43,1.17-.66.14-.08.27-.19.47-.33,0,.37.01.68,0,.99,0,.08-.08.18-.15.23-1.35.96-2.82,1.29-4.41.72-1.47-.52-2.47-1.96-2.52-3.52-.03-.94.15-1.81.72-2.58.79-1.05,1.84-1.59,3.15-1.64.9-.03,1.74.16,2.47.72.38.29.67.66.91,1.13ZM142.27,116.56c1.67-.99,3.31-1.97,4.96-2.95-.56-.86-2.2-1.03-3.27-.51-1.23.6-2.01,1.97-1.69,3.45Z"/>
  <path class="cls-13" d="M18.67,113.8c-2,1.18-3.99,2.35-5.99,3.54.55,1,1.35,1.58,2.46,1.69,1.07.11,1.97-.29,2.82-.88.16-.11.31-.23.52-.38.04.37.03.7.01,1.03,0,.06-.07.12-.13.16-1.28.91-2.67,1.26-4.2.8-1.62-.48-2.71-1.97-2.74-3.65-.02-.9.15-1.74.69-2.48.79-1.08,1.86-1.64,3.2-1.68.89-.03,1.71.16,2.43.71.39.3.69.67.92,1.14ZM17.37,113.61c-.66-.91-2.38-1.04-3.46-.41-1.18.68-1.83,2.06-1.49,3.35,1.65-.98,3.29-1.96,4.95-2.94Z"/>
  <path class="cls-13" d="M89.86,117.76c0,.37,0,.68,0,.99,0,.07-.06.16-.13.2-1.35.96-2.81,1.3-4.41.75-1.49-.52-2.5-1.97-2.54-3.54-.02-.93.15-1.79.71-2.55.79-1.07,1.85-1.61,3.17-1.66.89-.03,1.71.16,2.44.7.4.3.71.69.91,1.15-1.98,1.17-3.96,2.34-5.97,3.52.45.83,1.09,1.39,1.99,1.61.79.2,1.57.11,2.31-.24.37-.18.71-.41,1.07-.62.14-.09.27-.19.47-.32ZM83.76,116.55c1.66-.98,3.31-1.95,4.95-2.95-.61-.88-2.27-1.03-3.35-.47-1.22.64-1.93,2.02-1.61,3.41Z"/>
  <path class="cls-13" d="M102.2,115.95c.08,2.03-1.57,4.02-4.05,4-2.3-.01-4.04-1.75-4.04-4.04,0-2.28,1.75-3.96,4.09-3.97,2.3-.01,4.1,1.86,4,4.01ZM95.02,115.94c-.08,1.67,1.44,3.17,3.14,3.15,1.77-.02,3.15-1.4,3.16-3.17.02-1.72-1.51-3.14-3.17-3.14-1.62,0-3.21,1.42-3.14,3.16Z"/>
  <path class="cls-13" d="M53.15,115.15c0-.47.04-.89,0-1.31-.08-.66-.54-1.04-1.22-1.1-.6-.05-1.19.01-1.76.21-.32.11-.64.22-1,.34.1-.32.19-.59.29-.86.03-.07.1-.14.17-.17.9-.31,1.82-.44,2.76-.28,1.03.18,1.55.81,1.65,1.89,0,.11.01.22.01.33,0,1.76,0,3.52,0,5.29v.23c-.27.15-.55.16-.87.24v-.91c-.69.69-1.46.99-2.36.9-.73-.08-1.33-.42-1.82-.97-.86-.94-.94-2.63.01-3.68.55-.61,1.21-.94,2.05-.96.81-.02,1.49.26,2.1.82ZM51.22,119.1c1.25.05,1.97-.93,1.96-1.93-.02-1.2-.77-2.01-1.92-2.01-1.17,0-2.02.83-2.02,1.98,0,1.14.83,1.96,1.99,1.96Z"/>
  <path class="cls-12" d="M9.75,119.86c0-.18,0-.3,0-.42,0-1.3,0-2.6,0-3.9,0-.42-.03-.85-.12-1.27-.35-1.6-2.12-2.16-3.36-1.08-.53.46-.83,1.03-.83,1.75,0,1.46,0,2.92,0,4.37,0,.13,0,.26,0,.43-.29.03-.55.07-.84.1v-10.82c.26-.03.52-.06.83-.1v4.29c.13-.13.2-.18.25-.25.86-1.02,1.96-1.25,3.2-.93.78.21,1.3.76,1.53,1.53.12.39.19.81.19,1.22.02,1.57,0,3.13,0,4.7,0,.07-.01.14-.02.26-.26.03-.52.06-.83.1Z"/>
  <path class="cls-12" d="M29.2,119.76c-.29.03-.54.06-.85.1,0-.15,0-.28,0-.41,0-1.31,0-2.62,0-3.94,0-.42-.03-.85-.12-1.26-.34-1.55-2.06-2.11-3.29-1.1-.57.46-.89,1.05-.89,1.79,0,1.46,0,2.92,0,4.37,0,.13,0,.26,0,.44-.28.03-.54.07-.8.1-.08-.26-.11-10.13-.03-10.81.25-.03.51-.06.81-.1.04.38.02.73.02,1.07,0,.35,0,.7,0,1.06v2.09c.17-.02.21-.15.28-.23.85-.98,2.06-1.23,3.25-.84,1.02.33,1.46,1.15,1.59,2.16.04.29.04.58.04.87,0,1.4,0,2.79,0,4.19,0,.13,0,.27,0,.45Z"/>
  <path class="cls-12" d="M35.51,112.12c.3-.04.56-.07.84-.11v7.73c-.12.02-.25.05-.38.07-.13.02-.26.02-.44.03v-1.13s-.05-.02-.07-.03c-.07.07-.14.15-.2.22-.83.96-1.88,1.25-3.09.95-.86-.21-1.41-.79-1.67-1.62-.11-.36-.16-.74-.17-1.11-.02-1.55,0-3.11,0-4.66,0-.11.01-.21.02-.34.28-.04.54-.07.85-.11,0,.16,0,.29,0,.42,0,1.45,0,2.89.01,4.34,0,.37.06.75.16,1.11.28.97,1,1.39,1.95,1.34,1.25-.08,2.16-1.06,2.18-2.31.02-1.46,0-2.91,0-4.37,0-.13,0-.26,0-.41Z"/>
  <path class="cls-12" d="M124.37,112.12c.31-.04.56-.07.8-.1.08.28.11,6.96.03,7.74-.26.03-.52.06-.82.09v-1.13s-.04-.03-.07-.04c-.07.08-.14.16-.21.24-.84.95-1.89,1.23-3.1.92-.8-.21-1.34-.73-1.6-1.5-.12-.37-.2-.78-.21-1.17-.02-1.58,0-3.16,0-4.74,0-.1.01-.19.02-.31.27-.04.53-.07.83-.12,0,.16.01.29.01.42,0,1.46,0,2.91.01,4.37,0,.36.06.73.16,1.08.27.95.95,1.38,1.91,1.35,1.25-.05,2.21-1.04,2.22-2.3.02-1.46,0-2.91,0-4.37,0-.13,0-.26,0-.42Z"/>
  <path class="cls-13" d="M140.44,119.76c-.27.03-.52.06-.82.09,0-.15,0-.28,0-.41,0-1.3,0-2.6,0-3.9,0-.42-.02-.85-.11-1.27-.34-1.59-2.09-2.16-3.33-1.11-.55.46-.86,1.04-.86,1.77,0,1.46,0,2.92,0,4.37,0,.13,0,.26,0,.44-.28.03-.54.07-.8.1-.08-.28-.09-7.35-.01-7.74.25-.03.51-.06.8-.1v1.21c.12-.11.19-.17.24-.23.79-.95,1.81-1.22,2.98-1,.9.17,1.49.74,1.76,1.61.12.38.18.79.18,1.18.02,1.59,0,3.18,0,4.78,0,.05,0,.1-.02.2Z"/>
  <path class="cls-13" d="M56.13,113.24c.14-.15.21-.22.27-.3.84-.97,1.99-1.23,3.21-.87.85.25,1.34.89,1.55,1.74.08.32.12.65.12.97.01,1.59,0,3.18,0,4.78,0,.05,0,.1-.01.16-.24.15-.52.09-.82.14,0-.14-.01-.27-.01-.4,0-1.31,0-2.62,0-3.94,0-.42-.03-.85-.12-1.26-.34-1.55-2.05-2.12-3.29-1.11-.57.46-.9,1.04-.9,1.79,0,1.46,0,2.92,0,4.37,0,.13,0,.27,0,.44-.29.03-.56.07-.84.1v-7.73c.15-.02.27-.05.4-.06.13-.02.26-.03.44-.05v1.23Z"/>
  <path class="cls-3" d="M151.73,119.97c-.34,0-.68,0-1.02,0-.59-.12-1.14-.32-1.6-.74-.14-.13-.27-.27-.39-.4.22-.23.4-.43.61-.65.13.12.23.21.34.31.57.51,1.24.7,1.99.61.84-.1,1.38-.84,1.24-1.66-.06-.34-.23-.62-.55-.77-.28-.13-.58-.23-.88-.34-.49-.17-1-.32-1.47-.52-1.32-.56-1.25-2.24-.62-2.97.46-.54,1.03-.83,1.73-.89.89-.08,1.71.11,2.44.66.07.05.12.11.21.19-.17.23-.34.45-.52.7-.15-.1-.28-.2-.42-.29-.6-.4-1.25-.58-1.97-.37-.5.15-.85.46-.96.99-.07.35.02.65.26.9.25.26.57.4.91.51.27.08.54.13.81.22.33.11.67.23.98.39,1.01.54,1.25,1.59.89,2.6-.27.76-.87,1.21-1.63,1.44-.12.04-.24.06-.35.09Z"/>
  <path class="cls-3" d="M68.78,119.97c-.34,0-.68,0-1.02,0-.59-.12-1.15-.32-1.6-.74-.14-.13-.27-.27-.39-.4.22-.23.4-.43.61-.65.13.12.23.21.34.31.57.51,1.24.7,1.99.61.82-.1,1.36-.81,1.24-1.63-.05-.36-.23-.65-.56-.81-.28-.14-.58-.23-.88-.34-.49-.17-.99-.32-1.47-.52-1.32-.56-1.25-2.24-.62-2.97.46-.54,1.03-.83,1.73-.89.89-.08,1.71.11,2.44.66.07.05.12.11.21.19-.17.23-.34.45-.52.7-.15-.1-.28-.2-.42-.29-.6-.4-1.25-.58-1.97-.37-.5.15-.85.46-.96.99-.07.35.02.65.26.9.25.26.57.4.91.51.27.08.54.13.81.22.33.11.67.23.98.39,1.01.54,1.25,1.59.89,2.6-.27.76-.87,1.21-1.63,1.44-.12.04-.24.06-.35.09Z"/>
  <path class="cls-3" d="M128.97,119.97c-.34,0-.68,0-1.02,0-.59-.12-1.15-.32-1.6-.74-.14-.13-.27-.27-.39-.4.22-.23.4-.43.61-.65.13.12.24.21.34.31.57.51,1.24.7,1.99.61.84-.1,1.38-.84,1.24-1.66-.06-.34-.23-.62-.55-.77-.28-.13-.58-.23-.88-.34-.49-.17-.99-.32-1.47-.52-1.32-.56-1.25-2.24-.62-2.97.46-.54,1.03-.83,1.73-.89.89-.08,1.71.11,2.44.66.07.05.12.11.21.19-.17.23-.34.45-.52.7-.15-.1-.28-.2-.42-.29-.6-.4-1.25-.58-1.97-.37-.5.15-.85.46-.96.99-.07.35.02.65.26.9.25.26.57.4.91.51.27.08.54.13.81.22.33.11.67.23.98.39,1.01.54,1.25,1.59.89,2.6-.27.76-.87,1.21-1.63,1.44-.12.04-.24.06-.35.09Z"/>
  <path class="cls-3" d="M106.45,108.8c.09.29.17.53.25.77-.35.03-.68.05-1,.1-.67.11-1.08.51-1.22,1.18-.08.39-.13.79-.07,1.23.65.07,1.3-.01,1.97.05v.82h-1.95v6.8c-.3.04-.56.07-.88.11-.02-.59,0-1.16,0-1.72,0-.57,0-1.14,0-1.71v-3.46h-1.09c.07-.27.13-.49.19-.71.04-.14.14-.14.26-.14.19,0,.38,0,.59,0,.03-.37.05-.71.08-1.04.02-.17.04-.34.08-.5.23-.99.86-1.55,1.86-1.69.3-.04.6-.05.94-.08Z"/>
  <path class="cls-2" d="M1.1,112.96H0c.08-.27.13-.51.22-.73.02-.06.15-.11.23-.12.19-.02.39,0,.61,0,.01-.11.04-.2.04-.29,0-.43,0-.85,0-1.28,0-.16.04-.27.19-.35.21-.11.41-.24.68-.39v2.31h1.96c.08.29.05.55.03.86h-1.99c0,.16,0,.28,0,.4,0,1.09-.01,2.19,0,3.28,0,.5.04,1,.13,1.48.1.58.42.83,1.01.85.3,0,.6-.03.93-.05v.82c-.08.02-.16.07-.25.07-.36.01-.73.04-1.09,0-.69-.08-1.16-.45-1.37-1.13-.17-.54-.21-1.1-.22-1.65,0-1.2,0-2.4,0-3.61,0-.13,0-.27,0-.46Z"/>
  <path class="cls-12" d="M71.98,112.11c.28-.03.55-.07.84-.1v7.72c-.13.03-.26.06-.4.08-.13.02-.26.03-.43.05-.02-.1-.05-.18-.05-.27,0-2.4,0-4.81,0-7.21,0-.08.02-.17.03-.27Z"/>
  <path class="cls-13" d="M132.2,112.12c.28-.04.54-.07.83-.11v7.72c-.06.02-.13.05-.2.06-.2.03-.41.05-.63.07v-7.75Z"/>
  <path class="cls-2" d="M131.96,109.71c.22-.27.42-.51.63-.77.23.24.44.46.68.7-.21.26-.43.51-.67.79-.22-.25-.42-.47-.65-.72Z"/>
  <path class="cls-2" d="M72.38,108.92c.24.26.44.48.67.72-.22.26-.43.51-.66.79-.23-.24-.44-.47-.66-.71.22-.27.42-.52.66-.8Z"/>
</svg>