<?xml version="1.0" encoding="utf-8"?>
<!-- Generator: Adobe Illustrator 15.1.0, SVG Export Plug-In . SVG Version: 6.00 Build 0)  -->
<!DOCTYPE svg PUBLIC "-//W3C//DTD SVG 1.1//EN" "http://www.w3.org/Graphics/SVG/1.1/DTD/svg11.dtd">
<svg version="1.1" id="Layer_1" xmlns="http://www.w3.org/2000/svg" xmlns:xlink="http://www.w3.org/1999/xlink" x="0px" y="0px"
	 width="100%" viewBox="0 0 230 173" enable-background="new 0 0 230 173" xml:space="preserve">
<path fill="#000000" opacity="1.000000" stroke="none" 
	d="
M80.000000,174.000000 
	C80.000000,174.000000 79.500000,174.000000 79.250000,173.541611 
	C78.988556,170.250580 79.489647,167.271500 78.740509,164.649643 
	C78.387856,163.415421 75.694908,162.624832 73.924538,162.169998 
	C73.448219,162.047607 72.322342,163.814407 71.763786,164.858047 
	C71.334534,165.660095 71.327644,166.688187 71.219566,167.203018 
	C69.721855,165.250549 68.676926,162.490402 67.201744,162.237228 
	C63.354481,161.576965 59.318733,162.014984 55.000000,162.014984 
	C55.000000,166.389832 55.000000,170.194916 55.000000,174.000000 
	C55.000000,174.000000 54.500000,174.000000 54.250031,173.540207 
	C54.000065,169.451828 54.000065,165.823227 54.000065,162.194641 
	C53.327793,162.194168 52.655518,162.193695 51.983246,162.193207 
	C51.983246,164.206573 52.364845,166.322906 51.858448,168.199631 
	C51.476379,169.615585 49.957954,170.724915 48.945312,171.970718 
	C47.967438,170.688873 46.505665,169.532791 46.131714,168.093994 
	C45.642101,166.210190 46.011692,164.103104 46.011692,163.298599 
	C42.182102,162.771637 39.275204,162.371628 36.260620,161.956802 
	C36.013371,160.847458 35.703922,159.459045 35.394474,158.070633 
	C34.929649,158.145004 34.464825,158.219360 34.000000,158.293732 
	C34.000000,163.529160 34.000000,168.764572 34.000000,174.000000 
	C32.285641,174.000000 30.571283,174.000000 28.086100,173.765900 
	C27.506353,172.560822 27.697432,171.589844 27.842733,170.851486 
	C25.182600,171.224762 22.872568,171.548920 20.562538,171.873077 
	C20.471912,171.399033 20.381287,170.924973 20.290661,170.450928 
	C22.237629,169.290070 24.263250,168.238419 26.095730,166.918610 
	C26.913561,166.329605 27.897219,165.128311 27.792965,164.338593 
	C27.688782,163.549362 26.286999,162.303574 25.511120,162.344345 
	C22.790792,162.487259 20.095072,163.098541 16.690443,163.644089 
	C15.044255,163.175781 12.313041,162.398834 9.140513,161.496338 
	C9.030565,160.987335 8.715520,159.528839 8.044802,156.423767 
	C6.788257,160.134140 6.631374,165.697281 3.315710,159.385712 
	C3.095824,158.967148 1.796986,159.115387 1.000000,159.000000 
	C1.000000,154.975449 1.000000,150.950912 1.390460,146.384674 
	C5.778452,145.740479 4.914292,142.654602 4.942465,140.372910 
	C4.975897,137.665375 5.607418,136.242477 8.743598,135.863770 
	C13.830073,135.249603 17.025923,131.396667 16.955217,126.931458 
	C16.866581,121.333832 14.022778,117.920105 8.440338,117.151245 
	C5.999581,116.815086 3.482449,117.033447 1.000000,117.000000 
	C1.000000,78.418510 1.000000,39.837017 1.000000,1.000000 
	C28.353697,1.000000 55.708191,1.000000 83.875031,1.229337 
	C80.592232,5.062249 78.968475,9.160807 81.646568,14.443497 
	C82.129021,15.395178 81.687706,16.985128 81.318382,18.169889 
	C79.509338,23.973131 74.428474,24.990042 69.441383,25.985508 
	C58.839653,28.101706 55.980366,30.191435 57.052509,41.327282 
	C57.595699,46.969181 60.616146,50.732136 66.078735,50.016869 
	C69.320297,49.592415 72.720085,49.810085 75.812973,48.919899 
	C86.151840,45.944180 92.410675,53.128674 94.033646,60.353729 
	C94.479195,62.337223 95.308632,64.466866 96.600815,65.985977 
	C101.210709,71.405457 113.000526,71.560822 118.289017,65.967323 
	C120.421669,63.711666 122.886360,59.858475 122.327370,57.380276 
	C121.269646,52.691097 118.135773,48.470234 116.237450,43.983597 
	C120.818001,45.641647 125.242424,53.390194 124.943954,58.507206 
	C124.642067,63.682884 120.504379,68.857803 114.316116,70.242294 
	C102.846268,72.808395 98.419823,80.546448 102.553497,91.595436 
	C105.882004,100.492279 110.942871,103.855438 119.911697,101.140907 
	C131.348297,97.679466 134.997406,92.026245 131.966248,82.420898 
	C131.118729,79.735229 129.870316,77.129570 129.392410,74.385056 
	C128.732864,70.597366 129.363113,67.098503 133.513489,66.066849 
	C128.097000,73.126381 132.998962,78.878548 135.382187,84.705093 
	C136.213181,86.736725 138.479553,88.890724 140.555206,89.571373 
	C146.895920,91.650604 152.871109,90.263405 157.802841,85.642296 
	C162.596573,81.150490 160.911774,76.234184 158.684937,71.113228 
	C157.409363,68.179901 156.057129,64.768562 156.394302,61.757751 
	C156.992294,56.417999 161.094421,53.813522 166.257370,52.847595 
	C170.881882,51.982407 173.257797,48.905720 172.843262,44.396641 
	C172.012329,35.358631 164.281418,29.659468 155.355591,31.092028 
	C144.707230,32.801044 141.678589,31.335854 137.076157,22.248838 
	C133.253937,14.702273 122.685738,12.133806 116.184959,17.716232 
	C114.342590,19.298344 113.540970,22.849207 113.479332,25.525209 
	C113.423050,27.968575 115.014366,30.449888 115.585831,32.742603 
	C114.658653,31.620817 113.647545,30.742561 113.451576,29.709654 
	C111.896568,21.513746 106.569809,19.093645 99.134613,19.640373 
	C106.460205,17.205057 107.833672,14.643229 105.254234,7.679506 
	C104.398132,5.368310 103.097435,3.221802 102.000000,1.000000 
	C144.923401,1.000000 187.846802,1.000000 231.000000,1.000000 
	C231.000000,39.687256 231.000000,78.374969 230.532990,117.522621 
	C226.263443,117.998993 222.422592,117.715080 218.678848,118.192513 
	C217.343781,118.362785 215.265213,120.326530 215.200241,121.559830 
	C214.852798,128.154587 214.852325,134.786728 215.194855,141.381897 
	C215.259766,142.631760 217.312805,144.654846 218.618744,144.801117 
	C222.702026,145.258438 226.866806,144.988251 231.000000,145.000000 
	C231.000000,150.354935 231.000000,155.709854 230.652466,161.798798 
	C226.223495,162.371933 222.142776,162.135605 218.060165,162.096420 
	C216.841660,162.084717 215.338287,163.225662 214.444305,162.809601 
	C210.316010,160.888290 207.123489,162.125778 204.306900,165.382217 
	C201.877792,160.584778 197.978897,162.141068 194.000000,162.226593 
	C194.000000,166.405991 194.000000,170.202988 194.000000,174.000000 
	C194.000000,174.000000 193.500000,174.000000 193.250015,173.540268 
	C193.000031,169.450775 193.000031,165.821014 193.000031,162.191269 
	C192.415329,162.182266 191.830627,162.173264 191.245911,162.164261 
	C191.101990,164.236282 190.958069,166.308289 190.783752,168.817856 
	C188.486649,167.402466 186.684235,166.291885 184.881821,165.181305 
	C185.090851,164.807053 185.299881,164.432800 185.508911,164.058563 
	C186.932343,164.265869 188.355774,164.473175 189.779221,164.680496 
	C189.887909,164.172852 189.996613,163.665207 190.105301,163.157562 
	C188.468307,162.789886 186.750351,161.961441 185.225021,162.229416 
	C184.327332,162.387115 182.978424,164.456589 183.182785,165.361145 
	C183.492386,166.731552 184.844193,167.991455 186.011597,168.998840 
	C186.781006,169.662811 188.004288,169.800797 189.024353,170.174301 
	C188.561203,170.743973 188.098068,171.313660 187.634918,171.883347 
	C185.769547,171.607666 183.904175,171.331970 182.255875,171.088364 
	C181.992096,167.848602 181.759247,164.988754 181.526398,162.128906 
	C181.015533,162.166321 180.504684,162.203735 179.993820,162.241165 
	C179.993820,164.347427 179.977585,166.453842 179.997543,168.559921 
	C180.029205,171.903320 178.160568,172.377640 175.028748,171.588165 
	C175.028748,168.516830 175.028748,165.417160 175.028748,160.853287 
	C173.083908,162.571777 172.137222,163.408279 171.834488,163.675781 
	C168.618759,162.976532 165.644730,162.329834 162.195175,161.579742 
	C162.094208,161.121811 161.764633,159.627090 161.435074,158.132370 
	C160.875427,158.176117 160.315781,158.219849 159.756119,158.263580 
	C160.170746,163.509064 160.585373,168.754532 161.000000,174.000000 
	C158.299988,174.000000 155.599976,174.000000 152.449982,173.546921 
	C152.817917,169.671463 149.738235,165.165619 155.271332,162.960144 
	C153.915268,162.204544 152.931580,161.656433 151.995255,161.134705 
	C153.206177,159.843109 154.149536,158.836899 155.092880,157.830673 
	C154.596115,157.404587 154.099350,156.978500 153.602570,156.552414 
	C152.362442,158.128372 151.241699,159.823044 149.837296,161.235672 
	C148.997711,162.080185 147.318726,163.268509 146.694839,162.954727 
	C143.098450,161.145935 139.866943,161.503021 137.350098,164.436783 
	C134.884430,167.310898 136.056061,170.261963 138.221756,172.921738 
	C138.368271,173.101654 138.083954,173.632416 138.000000,174.000000 
	C135.958328,174.000000 133.916672,174.000000 131.095093,173.765854 
	C130.506653,172.560410 130.698151,171.589127 130.841629,170.861328 
	C128.166412,171.228073 125.836739,171.547455 123.507065,171.866852 
	C123.370697,171.316437 123.234329,170.766037 123.097954,170.215637 
	C125.041771,169.148102 127.053375,168.183456 128.899185,166.967194 
	C129.749878,166.406647 130.996933,165.048904 130.801453,164.586731 
	C130.377380,163.584152 129.100403,162.209869 128.243759,162.258133 
	C125.521011,162.411530 122.831070,163.147369 120.451820,163.597000 
	C119.955666,162.076248 119.301773,160.072067 118.647881,158.067886 
	C117.808479,159.528290 116.969070,160.988678 116.680855,161.490128 
	C113.169022,162.333649 110.198883,163.047058 107.228752,163.760468 
	C105.263809,162.767670 102.867630,161.983490 100.536736,162.144501 
	C98.984116,162.251740 97.524620,163.707077 96.023438,164.559052 
	C96.956322,166.013992 97.814339,167.525253 98.850266,168.902695 
	C99.468414,169.724609 100.365715,170.336609 100.291695,170.268860 
	C98.112259,171.805573 96.556129,172.902786 95.000000,174.000000 
	C93.611107,174.000000 92.222221,174.000000 90.416656,173.548767 
	C89.999931,171.451508 90.011993,169.805344 89.997574,168.159424 
	C89.949005,162.614777 88.769135,161.619354 83.164352,162.306702 
	C82.179565,162.427460 81.177719,162.409210 80.000000,162.463669 
	C80.000000,166.439590 80.000000,170.219788 80.000000,174.000000 
M51.323170,117.393433 
	C50.516933,117.250526 49.709175,116.975082 48.904678,116.984306 
	C32.996693,117.166618 36.225903,114.775375 35.997631,129.385880 
	C35.916950,134.549957 36.639645,139.726593 37.928242,144.954834 
	C42.789154,144.742477 47.778984,145.666092 52.489426,143.168289 
	C49.806797,141.986755 47.142643,141.842438 44.500526,142.022171 
	C40.950470,142.263641 39.902237,140.607773 39.947849,137.284866 
	C39.991817,134.081299 40.300457,131.709610 44.434689,131.974258 
	C46.453583,132.103500 48.516190,131.549850 50.559010,131.305298 
	C50.531395,130.732483 50.503777,130.159668 50.476162,129.586853 
	C48.637981,129.388489 46.785461,128.940369 44.964680,129.044952 
	C41.427776,129.248077 39.888332,128.065414 39.925243,124.258698 
	C39.961990,120.468628 41.894001,120.094002 44.937370,119.903336 
	C47.286037,119.756195 49.575569,118.665199 51.323170,117.393433 
M207.837250,117.768242 
	C206.902054,118.594482 205.565262,119.240311 205.099380,120.277374 
	C202.756729,125.492020 200.641525,130.808853 197.986496,137.196426 
	C194.709656,129.651886 191.942032,123.279770 189.174408,116.907646 
	C186.455444,125.375626 184.694305,133.729187 183.155838,142.123535 
	C182.957886,143.203552 183.915314,144.495285 184.337540,145.688934 
	C184.753952,145.630859 185.170364,145.572784 185.586777,145.514709 
	C186.856689,139.857239 188.126602,134.199768 189.655991,127.386276 
	C192.578110,134.022278 195.038803,139.610428 197.984085,146.299026 
	C200.893051,139.630203 203.276978,134.165054 206.110413,127.669434 
	C207.735306,134.531464 209.064102,140.143036 210.392883,145.754593 
	C211.133377,145.619019 211.873871,145.483459 212.614349,145.347885 
	C212.497864,136.198257 209.367111,127.419006 207.837250,117.768242 
M117.372360,121.285477 
	C119.221924,120.575989 121.071495,119.866508 122.921059,119.157021 
	C114.539368,117.998314 106.235382,117.226906 97.921417,117.097572 
	C89.251610,116.962692 84.135223,123.758041 85.042854,133.458496 
	C85.753815,141.056946 94.142410,147.505646 101.467438,145.780350 
	C103.162994,145.380981 104.555916,143.696747 106.088097,142.603745 
	C105.777031,142.190598 105.465973,141.777435 105.154907,141.364288 
	C104.542694,141.510223 103.926208,141.640350 103.318932,141.804550 
	C97.972649,143.249954 93.317268,141.795822 90.170166,137.528549 
	C87.108398,133.376968 87.821495,129.104431 90.154465,124.938126 
	C92.866142,120.095512 97.284935,119.522896 102.239944,120.208908 
	C103.817360,120.427307 105.479530,120.379738 107.061447,120.158028 
	C113.081696,119.314293 113.933243,120.013687 113.952438,126.274109 
	C113.971443,132.469574 113.956604,138.665161 113.956604,144.860687 
	C114.699944,144.891754 115.443275,144.922806 116.186615,144.953873 
	C118.025078,137.491180 116.340218,129.680893 117.372360,121.285477 
M32.937645,127.944939 
	C33.041580,119.665581 29.281473,115.753922 22.336555,117.189110 
	C21.163631,117.431496 19.350012,118.817314 19.325819,119.715073 
	C19.095936,128.245529 19.188749,136.784683 19.188749,146.104630 
	C25.310555,143.541351 21.344971,138.100372 23.969381,134.947998 
	C26.339207,137.940384 28.484056,140.839523 30.863409,143.531372 
	C31.535963,144.292267 32.894245,144.447021 33.938030,144.879776 
	C33.845871,143.631836 34.175407,142.111954 33.579937,141.188583 
	C31.997751,138.735138 30.016523,136.539017 28.373486,134.466904 
	C30.072624,132.304550 31.469936,130.526321 32.937645,127.944939 
M57.064373,117.316338 
	C56.452942,118.044037 55.325481,118.760727 55.309685,119.501137 
	C55.146816,127.135765 55.118855,134.774704 55.199635,142.410889 
	C55.207726,143.175522 56.008167,144.286453 56.730774,144.634094 
	C64.122292,148.190109 75.269890,141.661209 75.959648,133.454971 
	C76.916084,122.075996 70.877640,116.612740 57.064373,117.316338 
M145.148102,135.350052 
	C141.891373,129.300537 138.634659,123.251030 134.716400,115.972679 
	C129.449677,126.121109 124.798622,135.083221 120.147568,144.045349 
	C120.641449,144.442795 121.135338,144.840240 121.629219,145.237701 
	C122.967041,143.743973 124.573494,142.411301 125.585945,140.722504 
	C127.602982,137.358032 128.760376,133.787888 134.067123,133.795120 
	C138.940231,133.801758 141.780365,135.165359 143.467209,139.769241 
	C144.195892,141.758057 146.083618,143.322235 147.444824,145.079300 
	C148.067535,144.631012 148.690231,144.182709 149.312927,143.734406 
	C148.046295,141.157425 146.779648,138.580460 145.148102,135.350052 
M163.928970,127.503197 
	C163.928970,135.487045 163.928970,143.470901 163.928970,151.454758 
	C167.817459,148.345840 167.824921,114.680031 163.928864,111.533043 
	C163.928864,116.523903 163.928864,121.514763 163.928970,127.503197 
M79.132629,119.268364 
	C79.132629,127.777046 79.132629,136.285721 79.132629,145.612488 
	C80.658394,144.684601 81.621788,144.377045 81.626595,144.055176 
	C81.752838,135.601364 81.786697,127.146004 81.720459,118.691826 
	C81.719841,118.612602 80.158447,118.545609 79.132629,119.268364 
z"/>
<path fill="#82BB55" opacity="1.000000" stroke="none" 
	d="
M101.532059,1.000000 
	C103.097435,3.221802 104.398132,5.368310 105.254234,7.679506 
	C107.833672,14.643229 106.460205,17.205057 98.748215,19.686157 
	C94.790474,21.364056 91.380592,22.668556 87.639824,24.101797 
	C87.117691,24.800915 86.926445,25.371294 86.796799,25.920948 
	C86.858398,25.900221 86.816330,25.777220 86.436508,25.738796 
	C83.389412,29.907555 84.618156,36.422844 88.965912,41.057510 
	C88.973106,41.026897 88.911804,41.040985 89.067947,41.372154 
	C93.433922,44.699520 97.749161,45.573391 103.042435,44.275414 
	C107.124611,43.274422 111.652313,44.090282 115.963501,44.057995 
	C115.945076,44.017666 115.864548,44.054783 115.864548,44.054783 
	C118.135773,48.470234 121.269646,52.691097 122.327370,57.380276 
	C122.886360,59.858475 120.421669,63.711666 118.289017,65.967323 
	C113.000526,71.560822 101.210709,71.405457 96.600815,65.985977 
	C95.308632,64.466866 94.479195,62.337223 94.033646,60.353729 
	C92.410675,53.128674 86.151840,45.944180 75.812973,48.919899 
	C72.720085,49.810085 69.320297,49.592415 66.078735,50.016869 
	C60.616146,50.732136 57.595699,46.969181 57.052509,41.327282 
	C55.980366,30.191435 58.839653,28.101706 69.441383,25.985508 
	C74.428474,24.990042 79.509338,23.973131 81.318382,18.169889 
	C81.687706,16.985128 82.129021,15.395178 81.646568,14.443497 
	C78.968475,9.160807 80.592232,5.062249 84.343689,1.229337 
	C89.688042,1.000000 95.376083,1.000000 101.532059,1.000000 
z"/>
<path fill="#82BB56" opacity="1.000000" stroke="none" 
	d="
M95.468658,174.000000 
	C96.556129,172.902786 98.112259,171.805573 100.291695,170.268860 
	C100.365715,170.336609 99.468414,169.724609 98.850266,168.902695 
	C97.814339,167.525253 96.956322,166.013992 96.023438,164.559052 
	C97.524620,163.707077 98.984116,162.251740 100.536736,162.144501 
	C102.867630,161.983490 105.263809,162.767670 107.228752,163.760468 
	C110.198883,163.047058 113.169022,162.333649 116.680855,161.490128 
	C116.969070,160.988678 117.808479,159.528290 118.647881,158.067886 
	C119.301773,160.072067 119.955666,162.076248 120.451820,163.597000 
	C122.831070,163.147369 125.521011,162.411530 128.243759,162.258133 
	C129.100403,162.209869 130.377380,163.584152 130.801453,164.586731 
	C130.996933,165.048904 129.749878,166.406647 128.899185,166.967194 
	C127.053375,168.183456 125.041771,169.148102 123.097954,170.215637 
	C123.234329,170.766037 123.370697,171.316437 123.507065,171.866852 
	C125.836739,171.547455 128.166412,171.228073 130.841629,170.861328 
	C130.698151,171.589127 130.506653,172.560410 130.657593,173.765854 
	C119.312439,174.000000 107.624878,174.000000 95.468658,174.000000 
M112.069588,164.442245 
	C111.199554,165.930298 109.565742,167.491119 109.698433,168.883621 
	C109.806770,170.020523 112.001656,171.716522 113.314697,171.756897 
	C114.508865,171.793610 116.558083,170.108139 116.827164,168.875504 
	C117.443810,166.050690 115.915283,164.167236 112.069588,164.442245 
z"/>
<path fill="#82BB56" opacity="1.000000" stroke="none" 
	d="
M194.375000,174.000000 
	C194.000000,170.202988 194.000000,166.405991 194.000000,162.226593 
	C197.978897,162.141068 201.877792,160.584778 204.306900,165.382217 
	C207.123489,162.125778 210.316010,160.888290 214.444305,162.809601 
	C215.338287,163.225662 216.841660,162.084717 218.060165,162.096420 
	C222.142776,162.135605 226.223495,162.371933 230.652466,162.266388 
	C231.000000,165.956802 231.000000,169.913620 231.000000,174.000000 
	C221.646088,174.000000 212.291702,174.000000 202.468658,173.552612 
	C201.990768,170.950150 202.227814,168.752197 201.863342,166.658997 
	C201.693604,165.684219 200.357269,164.912552 199.549728,164.048828 
	C198.710999,164.879303 197.282516,165.624771 197.148193,166.556778 
	C196.796860,168.994339 197.011185,171.513412 197.000000,174.000000 
	C196.250000,174.000000 195.500000,174.000000 194.375000,174.000000 
M215.886047,170.977310 
	C217.479889,171.335907 219.073730,171.694489 221.443665,172.227692 
	C216.512085,165.496552 213.755447,165.362640 208.642670,171.906204 
	C210.823303,171.504135 213.003937,171.102081 215.886047,170.977310 
M228.421234,170.001038 
	C226.724319,169.190659 225.027405,168.380264 223.291428,167.551224 
	C223.453690,171.971695 225.181885,172.910843 228.421234,170.001038 
M221.775299,167.256607 
	C222.055023,167.369537 222.329224,167.506058 222.619446,167.574280 
	C222.673401,167.586960 222.889679,167.226791 222.866638,167.203842 
	C221.638580,165.981110 220.392868,164.776154 219.148972,163.569351 
	C218.708862,164.141129 218.268753,164.712891 217.828644,165.284668 
	C218.871078,165.869553 219.913528,166.454437 221.775299,167.256607 
z"/>
<path fill="#000000" opacity="1.000000" stroke="none" 
	d="
M231.000000,120.000000 
	C231.000000,127.020950 231.000000,134.041901 230.536346,141.529907 
	C227.578796,141.994080 225.070801,141.821152 222.594269,142.026978 
	C218.591217,142.359695 217.950912,140.204163 217.967819,136.846909 
	C217.983932,133.638229 218.716995,131.781631 222.407745,131.976685 
	C224.440491,132.084106 226.507019,131.552200 228.558319,131.308548 
	C228.531723,130.735855 228.505142,130.163162 228.478561,129.590469 
	C226.636765,129.390869 224.779419,128.935272 222.956467,129.045990 
	C219.371796,129.263748 217.915573,128.004028 217.948380,124.219467 
	C217.981781,120.364815 219.988586,119.867447 223.020447,119.985588 
	C225.676453,120.089081 228.339859,120.002571 231.000000,120.000000 
z"/>
<path fill="#82BB56" opacity="1.000000" stroke="none" 
	d="
M161.468658,174.000000 
	C160.585373,168.754532 160.170746,163.509064 159.756119,158.263580 
	C160.315781,158.219849 160.875427,158.176117 161.435074,158.132370 
	C161.764633,159.627090 162.094208,161.121811 162.195175,161.579742 
	C165.644730,162.329834 168.618759,162.976532 171.834488,163.675781 
	C172.137222,163.408279 173.083908,162.571777 175.028748,160.853287 
	C175.028748,165.417160 175.028748,168.516830 175.028748,171.588165 
	C178.160568,172.377640 180.029205,171.903320 179.997543,168.559921 
	C179.977585,166.453842 179.993820,164.347427 179.993820,162.241165 
	C180.504684,162.203735 181.015533,162.166321 181.526398,162.128906 
	C181.759247,164.988754 181.992096,167.848602 182.255875,171.088364 
	C183.904175,171.331970 185.769547,171.607666 187.634918,171.883347 
	C188.098068,171.313660 188.561203,170.743973 189.024353,170.174301 
	C188.004288,169.800797 186.781006,169.662811 186.011597,168.998840 
	C184.844193,167.991455 183.492386,166.731552 183.182785,165.361145 
	C182.978424,164.456589 184.327332,162.387115 185.225021,162.229416 
	C186.750351,161.961441 188.468307,162.789886 190.105301,163.157562 
	C189.996613,163.665207 189.887909,164.172852 189.779221,164.680496 
	C188.355774,164.473175 186.932343,164.265869 185.508911,164.058563 
	C185.299881,164.432800 185.090851,164.807053 184.881821,165.181305 
	C186.684235,166.291885 188.486649,167.402466 190.783752,168.817856 
	C190.958069,166.308289 191.101990,164.236282 191.245911,162.164261 
	C191.830627,162.173264 192.415329,162.182266 193.000031,162.191269 
	C193.000031,165.821014 193.000031,169.450775 193.000015,173.540268 
	C182.645767,174.000000 172.291550,174.000000 161.468658,174.000000 
M162.082596,169.183899 
	C163.985001,169.995789 165.853394,171.205795 167.810867,171.373108 
	C168.386230,171.422256 169.878922,168.438858 169.710678,166.989273 
	C169.582031,165.880951 166.913010,163.928772 166.392578,164.213547 
	C164.684036,165.148361 163.439926,166.931946 162.082596,169.183899 
z"/>
<path fill="#82BB56" opacity="1.000000" stroke="none" 
	d="
M1.000000,159.472656 
	C1.796986,159.115387 3.095824,158.967148 3.315710,159.385712 
	C6.631374,165.697281 6.788257,160.134140 8.044802,156.423767 
	C8.715520,159.528839 9.030565,160.987335 9.140513,161.496338 
	C12.313041,162.398834 15.044255,163.175781 16.690443,163.644089 
	C20.095072,163.098541 22.790792,162.487259 25.511120,162.344345 
	C26.286999,162.303574 27.688782,163.549362 27.792965,164.338593 
	C27.897219,165.128311 26.913561,166.329605 26.095730,166.918610 
	C24.263250,168.238419 22.237629,169.290070 20.290661,170.450928 
	C20.381287,170.924973 20.471912,171.399033 20.562538,171.873077 
	C22.872568,171.548920 25.182600,171.224762 27.842733,170.851486 
	C27.697432,171.589844 27.506353,172.560822 27.657639,173.765900 
	C23.975456,174.000000 19.950911,174.000000 15.463192,173.559387 
	C14.997581,171.479675 15.320552,169.750885 14.900444,168.226944 
	C14.487065,166.727386 13.320029,165.435577 12.483688,164.052612 
	C11.325096,165.401505 9.657263,166.582489 9.142517,168.143677 
	C8.557330,169.918503 9.002636,172.033096 9.000000,174.000000 
	C6.386111,174.000000 3.772222,174.000000 1.000000,174.000000 
	C1.000000,169.315857 1.000000,164.630585 1.000000,159.472656 
z"/>
<path fill="#294E35" opacity="1.000000" stroke="none" 
	d="
M1.000000,117.468658 
	C3.482449,117.033447 5.999581,116.815086 8.440338,117.151245 
	C14.022778,117.920105 16.866581,121.333832 16.955217,126.931458 
	C17.025923,131.396667 13.830073,135.249603 8.743598,135.863770 
	C5.607418,136.242477 4.975897,137.665375 4.942465,140.372910 
	C4.914292,142.654602 5.778452,145.740479 1.390460,145.921509 
	C1.000000,136.645767 1.000000,127.291542 1.000000,117.468658 
M13.216522,127.207901 
	C13.158823,126.568199 13.351205,125.668755 13.001644,125.332191 
	C11.141430,123.541176 9.145453,121.891167 7.196465,120.192352 
	C6.462060,122.099739 5.590566,123.969162 5.047774,125.929604 
	C4.750844,127.002014 5.015831,128.228302 5.016710,129.385193 
	C5.019608,133.198135 7.053116,133.702423 9.770053,131.922104 
	C11.148417,131.018906 11.972324,129.269577 13.216522,127.207901 
z"/>
<path fill="#82BB56" opacity="1.000000" stroke="none" 
	d="
M55.333332,174.000000 
	C55.000000,170.194916 55.000000,166.389832 55.000000,162.014984 
	C59.318733,162.014984 63.354481,161.576965 67.201744,162.237228 
	C68.676926,162.490402 69.721855,165.250549 71.219566,167.203018 
	C71.327644,166.688187 71.334534,165.660095 71.763786,164.858047 
	C72.322342,163.814407 73.448219,162.047607 73.924538,162.169998 
	C75.694908,162.624832 78.387856,163.415421 78.740509,164.649643 
	C79.489647,167.271500 78.988556,170.250580 79.000000,173.541611 
	C75.638710,174.000000 72.277428,174.000000 68.458069,173.553802 
	C67.990974,170.953766 68.166214,168.775497 67.885849,166.657562 
	C67.767021,165.759933 66.691566,164.988937 66.050903,164.160385 
	C65.378151,164.955063 64.220100,165.695862 64.124756,166.554626 
	C63.852085,169.010757 64.010887,171.514801 64.000000,174.000000 
	C63.250000,174.000000 62.500000,174.000000 61.374992,173.546509 
	C60.999981,170.141937 60.999981,167.190857 60.999981,164.239777 
	C60.528332,164.007477 60.056683,163.775177 59.585033,163.542892 
	C58.726997,164.710007 57.357162,165.783951 57.123955,167.064850 
	C56.715248,169.309677 57.003639,171.681427 57.000000,174.000000 
	C56.555553,174.000000 56.111111,174.000000 55.333332,174.000000 
z"/>
<path fill="#254C33" opacity="1.000000" stroke="none" 
	d="
M231.000000,119.666664 
	C228.339859,120.002571 225.676453,120.089081 223.020447,119.985588 
	C219.988586,119.867447 217.981781,120.364815 217.948380,124.219467 
	C217.915573,128.004028 219.371796,129.263748 222.956467,129.045990 
	C224.779419,128.935272 226.636765,129.390869 228.478561,129.590469 
	C228.505142,130.163162 228.531723,130.735855 228.558319,131.308548 
	C226.507019,131.552200 224.440491,132.084106 222.407745,131.976685 
	C218.716995,131.781631 217.983932,133.638229 217.967819,136.846909 
	C217.950912,140.204163 218.591217,142.359695 222.594269,142.026978 
	C225.070801,141.821152 227.578796,141.994080 230.536346,141.998489 
	C231.000000,142.750000 231.000000,143.500000 231.000000,144.625000 
	C226.866806,144.988251 222.702026,145.258438 218.618744,144.801117 
	C217.312805,144.654846 215.259766,142.631760 215.194855,141.381897 
	C214.852325,134.786728 214.852798,128.154587 215.200241,121.559830 
	C215.265213,120.326530 217.343781,118.362785 218.678848,118.192513 
	C222.422592,117.715080 226.263443,117.998993 230.532990,117.991280 
	C231.000000,118.444443 231.000000,118.888893 231.000000,119.666664 
z"/>
<path fill="#82BB56" opacity="1.000000" stroke="none" 
	d="
M138.464661,174.000000 
	C138.083954,173.632416 138.368271,173.101654 138.221756,172.921738 
	C136.056061,170.261963 134.884430,167.310898 137.350098,164.436783 
	C139.866943,161.503021 143.098450,161.145935 146.694839,162.954727 
	C147.318726,163.268509 148.997711,162.080185 149.837296,161.235672 
	C151.241699,159.823044 152.362442,158.128372 153.602570,156.552414 
	C154.099350,156.978500 154.596115,157.404587 155.092880,157.830673 
	C154.149536,158.836899 153.206177,159.843109 151.995255,161.134705 
	C152.931580,161.656433 153.915268,162.204544 155.271332,162.960144 
	C149.738235,165.165619 152.817917,169.671463 152.000000,173.546921 
	C147.643097,174.000000 143.286194,174.000000 138.464661,174.000000 
M146.477264,166.988312 
	C144.945129,164.541214 143.062759,162.579727 140.377548,165.308487 
	C139.418243,166.283356 138.810440,168.503296 139.258850,169.698441 
	C139.665619,170.782547 142.196136,172.175888 142.960419,171.789841 
	C144.558197,170.982803 145.608994,169.092880 146.477264,166.988312 
z"/>
<path fill="#82BB56" opacity="1.000000" stroke="none" 
	d="
M34.333332,174.000000 
	C34.000000,168.764572 34.000000,163.529160 34.000000,158.293732 
	C34.464825,158.219360 34.929649,158.145004 35.394474,158.070633 
	C35.703922,159.459045 36.013371,160.847458 36.260620,161.956802 
	C39.275204,162.371628 42.182102,162.771637 46.011692,163.298599 
	C46.011692,164.103104 45.642101,166.210190 46.131714,168.093994 
	C46.505665,169.532791 47.967438,170.688873 48.945312,171.970718 
	C49.957954,170.724915 51.476379,169.615585 51.858448,168.199631 
	C52.364845,166.322906 51.983246,164.206573 51.983246,162.193207 
	C52.655518,162.193695 53.327793,162.194168 54.000065,162.194641 
	C54.000065,165.823227 54.000065,169.451828 54.000031,173.540207 
	C49.975456,174.000000 45.950912,174.000000 41.463192,173.552780 
	C40.999001,171.299652 41.292778,169.426575 40.901527,167.709579 
	C40.601070,166.391037 39.437435,165.269180 38.657669,164.059860 
	C37.780792,165.239151 36.416233,166.315125 36.139458,167.621552 
	C35.706367,169.665802 36.009014,171.865906 36.000000,174.000000 
	C35.555553,174.000000 35.111111,174.000000 34.333332,174.000000 
z"/>
<path fill="#82BB56" opacity="1.000000" stroke="none" 
	d="
M80.333328,174.000000 
	C80.000000,170.219788 80.000000,166.439590 80.000000,162.463669 
	C81.177719,162.409210 82.179565,162.427460 83.164352,162.306702 
	C88.769135,161.619354 89.949005,162.614777 89.997574,168.159424 
	C90.011993,169.805344 89.999931,171.451508 90.000000,173.548767 
	C89.555557,174.000000 89.111107,174.000000 88.333344,173.559387 
	C87.997589,171.479660 88.320564,169.750870 87.900475,168.226898 
	C87.487106,166.727341 86.320091,165.435547 85.483765,164.052582 
	C84.325134,165.401459 82.657265,166.582443 82.142509,168.143631 
	C81.557312,169.918457 82.002632,172.033081 82.000000,174.000000 
	C81.555557,174.000000 81.111107,174.000000 80.333328,174.000000 
z"/>
<path fill="#000000" opacity="1.000000" stroke="none" 
	d="
M9.428462,174.000000 
	C9.002636,172.033096 8.557330,169.918503 9.142517,168.143677 
	C9.657263,166.582489 11.325096,165.401505 12.483688,164.052612 
	C13.320029,165.435577 14.487065,166.727386 14.900444,168.226944 
	C15.320552,169.750885 14.997581,171.479675 15.000009,173.559387 
	C13.285642,174.000000 11.571282,174.000000 9.428462,174.000000 
z"/>
<path fill="#000000" opacity="1.000000" stroke="none" 
	d="
M82.428459,174.000000 
	C82.002632,172.033081 81.557312,169.918457 82.142509,168.143631 
	C82.657265,166.582443 84.325134,165.401459 85.483765,164.052582 
	C86.320091,165.435547 87.487106,166.727341 87.900475,168.226898 
	C88.320564,169.750870 87.997589,171.479660 88.000008,173.559387 
	C86.285645,174.000000 84.571281,174.000000 82.428459,174.000000 
z"/>
<path fill="#000000" opacity="1.000000" stroke="none" 
	d="
M197.416656,174.000000 
	C197.011185,171.513412 196.796860,168.994339 197.148193,166.556778 
	C197.282516,165.624771 198.710999,164.879303 199.549728,164.048828 
	C200.357269,164.912552 201.693604,165.684219 201.863342,166.658997 
	C202.227814,168.752197 201.990768,170.950150 202.000000,173.552612 
	C200.611115,174.000000 199.222214,174.000000 197.416656,174.000000 
z"/>
<path fill="#000000" opacity="1.000000" stroke="none" 
	d="
M36.416664,174.000000 
	C36.009014,171.865906 35.706367,169.665802 36.139458,167.621552 
	C36.416233,166.315125 37.780792,165.239151 38.657669,164.059860 
	C39.437435,165.269180 40.601070,166.391037 40.901527,167.709579 
	C41.292778,169.426575 40.999001,171.299652 41.000008,173.552780 
	C39.611111,174.000000 38.222221,174.000000 36.416664,174.000000 
z"/>
<path fill="#000000" opacity="1.000000" stroke="none" 
	d="
M57.399994,174.000000 
	C57.003639,171.681427 56.715248,169.309677 57.123955,167.064850 
	C57.357162,165.783951 58.726997,164.710007 59.585033,163.542892 
	C60.056683,163.775177 60.528332,164.007477 60.999981,164.239777 
	C60.999981,167.190857 60.999981,170.141937 60.999992,173.546509 
	C59.933331,174.000000 58.866661,174.000000 57.399994,174.000000 
z"/>
<path fill="#000000" opacity="1.000000" stroke="none" 
	d="
M64.399994,174.000000 
	C64.010887,171.514801 63.852085,169.010757 64.124756,166.554626 
	C64.220100,165.695862 65.378151,164.955063 66.050903,164.160385 
	C66.691566,164.988937 67.767021,165.759933 67.885849,166.657562 
	C68.166214,168.775497 67.990974,170.953766 68.000000,173.553802 
	C66.933327,174.000000 65.866661,174.000000 64.399994,174.000000 
z"/>
<path fill="#254C33" opacity="1.000000" stroke="none" 
	d="
M87.970711,23.973061 
	C91.380592,22.668556 94.790474,21.364056 98.586746,20.013771 
	C106.569809,19.093645 111.896568,21.513746 113.451576,29.709654 
	C113.647545,30.742561 114.658653,31.620817 115.760307,33.006702 
	C116.857780,33.997044 117.487022,34.551411 118.293655,35.415615 
	C122.227753,36.345718 125.967072,37.291718 129.746124,37.493568 
	C133.438690,37.690796 137.171799,37.128616 141.118378,37.152206 
	C143.905640,40.613548 146.461624,43.822491 149.012238,47.475567 
	C148.669724,51.462547 148.332596,55.005386 147.966400,58.660728 
	C147.937332,58.773232 147.548004,58.995762 147.122986,58.930885 
	C142.694580,60.556187 137.491989,59.777012 134.920105,64.714569 
	C134.515335,65.180435 134.177765,65.484917 133.840195,65.789398 
	C129.363113,67.098503 128.732864,70.597366 129.392410,74.385056 
	C129.870316,77.129570 131.118729,79.735229 131.966248,82.420898 
	C134.997406,92.026245 131.348297,97.679466 119.911697,101.140907 
	C110.942871,103.855438 105.882004,100.492279 102.553497,91.595436 
	C98.419823,80.546448 102.846268,72.808395 114.316116,70.242294 
	C120.504379,68.857803 124.642067,63.682884 124.943954,58.507206 
	C125.242424,53.390194 120.818001,45.641647 116.237450,43.983597 
	C115.864548,44.054783 115.945076,44.017666 115.913284,43.687180 
	C113.626053,42.639530 111.123978,40.909851 109.159790,41.388317 
	C102.292297,43.061211 95.625587,43.639606 88.911804,41.040985 
	C88.911804,41.040985 88.973106,41.026897 89.020859,40.662308 
	C88.317856,35.457554 87.567093,30.617386 86.816330,25.777220 
	C86.816330,25.777220 86.858398,25.900221 87.068611,25.773254 
	C87.509453,25.088545 87.740082,24.530802 87.970711,23.973061 
z"/>
<path fill="#3E893A" opacity="1.000000" stroke="none" 
	d="
M118.116272,35.105778 
	C117.487022,34.551411 116.857780,33.997044 116.054047,33.178577 
	C115.014366,30.449888 113.423050,27.968575 113.479332,25.525209 
	C113.540970,22.849207 114.342590,19.298344 116.184959,17.716232 
	C122.685738,12.133806 133.253937,14.702273 137.076157,22.248838 
	C141.678589,31.335854 144.707230,32.801044 155.355591,31.092028 
	C164.281418,29.659468 172.012329,35.358631 172.843262,44.396641 
	C173.257797,48.905720 170.881882,51.982407 166.257370,52.847595 
	C161.094421,53.813522 156.992294,56.417999 156.394302,61.757751 
	C156.057129,64.768562 157.409363,68.179901 158.684937,71.113228 
	C160.911774,76.234184 162.596573,81.150490 157.802841,85.642296 
	C152.871109,90.263405 146.895920,91.650604 140.555206,89.571373 
	C138.479553,88.890724 136.213181,86.736725 135.382187,84.705093 
	C132.998962,78.878548 128.097000,73.126381 133.513489,66.066841 
	C134.177765,65.484917 134.515335,65.180435 135.199402,64.439728 
	C139.546600,62.334251 143.547302,60.665005 147.548004,58.995762 
	C147.548004,58.995762 147.937332,58.773232 148.208359,58.361240 
	C150.497055,54.400600 151.576523,50.805698 149.017624,47.031429 
	C146.461624,43.822491 143.905640,40.613548 140.919434,36.835663 
	C137.935425,35.893497 135.025635,34.554871 132.898590,35.339123 
	C127.769325,37.230309 123.015251,36.850986 118.116272,35.105778 
z"/>
<path fill="#294E35" opacity="1.000000" stroke="none" 
	d="
M207.902954,118.097572 
	C209.367111,127.419006 212.497864,136.198257 212.614349,145.347885 
	C211.873871,145.483459 211.133377,145.619019 210.392883,145.754593 
	C209.064102,140.143036 207.735306,134.531464 206.110413,127.669434 
	C203.276978,134.165054 200.893051,139.630203 197.984085,146.299026 
	C195.038803,139.610428 192.578110,134.022278 189.655991,127.386276 
	C188.126602,134.199768 186.856689,139.857239 185.586777,145.514709 
	C185.170364,145.572784 184.753952,145.630859 184.337540,145.688934 
	C183.915314,144.495285 182.957886,143.203552 183.155838,142.123535 
	C184.694305,133.729187 186.455444,125.375626 189.174408,116.907646 
	C191.942032,123.279770 194.709656,129.651886 197.986496,137.196426 
	C200.641525,130.808853 202.756729,125.492020 205.099380,120.277374 
	C205.565262,119.240311 206.902054,118.594482 207.902954,118.097572 
z"/>
<path fill="#294E35" opacity="1.000000" stroke="none" 
	d="
M117.257156,121.700699 
	C116.340218,129.680893 118.025078,137.491180 116.186615,144.953873 
	C115.443275,144.922806 114.699944,144.891754 113.956604,144.860687 
	C113.956604,138.665161 113.971443,132.469574 113.952438,126.274109 
	C113.933243,120.013687 113.081696,119.314293 107.061447,120.158028 
	C105.479530,120.379738 103.817360,120.427307 102.239944,120.208908 
	C97.284935,119.522896 92.866142,120.095512 90.154465,124.938126 
	C87.821495,129.104431 87.108398,133.376968 90.170166,137.528549 
	C93.317268,141.795822 97.972649,143.249954 103.318932,141.804550 
	C103.926208,141.640350 104.542694,141.510223 105.154907,141.364288 
	C105.465973,141.777435 105.777031,142.190598 106.088097,142.603745 
	C104.555916,143.696747 103.162994,145.380981 101.467438,145.780350 
	C94.142410,147.505646 85.753815,141.056946 85.042854,133.458496 
	C84.135223,123.758041 89.251610,116.962692 97.921417,117.097572 
	C106.235382,117.226906 114.539368,117.998314 122.921059,119.157021 
	C121.071495,119.866508 119.221924,120.575989 117.257156,121.700699 
z"/>
<path fill="#294E35" opacity="1.000000" stroke="none" 
	d="
M32.902447,128.346512 
	C31.469936,130.526321 30.072624,132.304550 28.373486,134.466904 
	C30.016523,136.539017 31.997751,138.735138 33.579937,141.188583 
	C34.175407,142.111954 33.845871,143.631836 33.938026,144.879791 
	C32.894245,144.447021 31.535963,144.292267 30.863409,143.531372 
	C28.484056,140.839523 26.339207,137.940384 23.969381,134.947998 
	C21.344971,138.100372 25.310555,143.541351 19.188749,146.104630 
	C19.188749,136.784683 19.095936,128.245529 19.325819,119.715073 
	C19.350012,118.817314 21.163631,117.431496 22.336555,117.189110 
	C29.281473,115.753922 33.041580,119.665581 32.902447,128.346512 
M28.984896,128.334290 
	C30.752779,122.963806 29.318361,120.937630 23.244751,120.780983 
	C23.160410,122.704567 22.902437,124.655914 23.049288,126.576302 
	C23.152832,127.930344 23.805914,129.242355 24.213644,130.573135 
	C25.625816,130.011780 27.037987,129.450424 28.984896,128.334290 
z"/>
<path fill="#294E35" opacity="1.000000" stroke="none" 
	d="
M57.491310,117.224213 
	C70.877640,116.612740 76.916084,122.075996 75.959648,133.454971 
	C75.269890,141.661209 64.122292,148.190109 56.730774,144.634094 
	C56.008167,144.286453 55.207726,143.175522 55.199635,142.410889 
	C55.118855,134.774704 55.146816,127.135765 55.309685,119.501137 
	C55.325481,118.760727 56.452942,118.044037 57.491310,117.224213 
M58.003994,123.881851 
	C58.003994,129.799072 58.003994,135.716293 58.003994,141.554871 
	C66.377045,142.542114 71.709793,138.979782 72.768227,132.154800 
	C73.574905,126.953201 69.237083,121.505165 63.137310,120.294693 
	C60.874893,119.845726 58.287663,119.348824 58.003994,123.881851 
z"/>
<path fill="#294E35" opacity="1.000000" stroke="none" 
	d="
M145.330551,135.676758 
	C146.779648,138.580460 148.046295,141.157425 149.312927,143.734406 
	C148.690231,144.182709 148.067535,144.631012 147.444824,145.079300 
	C146.083618,143.322235 144.195892,141.758057 143.467209,139.769241 
	C141.780365,135.165359 138.940231,133.801758 134.067123,133.795120 
	C128.760376,133.787888 127.602982,137.358032 125.585945,140.722504 
	C124.573494,142.411301 122.967041,143.743973 121.629219,145.237701 
	C121.135338,144.840240 120.641449,144.442795 120.147568,144.045349 
	C124.798622,135.083221 129.449677,126.121109 134.716400,115.972679 
	C138.634659,123.251030 141.891373,129.300537 145.330551,135.676758 
M134.673157,124.674316 
	C133.495178,126.743935 132.317200,128.813553 130.453369,132.088150 
	C133.851456,131.483337 135.927216,131.113861 138.788452,130.604599 
	C137.397369,128.228683 136.354736,126.447929 134.673157,124.674316 
z"/>
<path fill="#254C33" opacity="1.000000" stroke="none" 
	d="
M51.891392,117.993851 
	C49.575569,118.665199 47.286037,119.756195 44.937370,119.903336 
	C41.894001,120.094002 39.961990,120.468628 39.925243,124.258698 
	C39.888332,128.065414 41.427776,129.248077 44.964680,129.044952 
	C46.785461,128.940369 48.637981,129.388489 50.476162,129.586853 
	C50.503777,130.159668 50.531395,130.732483 50.559010,131.305298 
	C48.516190,131.549850 46.453583,132.103500 44.434689,131.974258 
	C40.300457,131.709610 39.991817,134.081299 39.947849,137.284866 
	C39.902237,140.607773 40.950470,142.263641 44.500526,142.022171 
	C47.142643,141.842438 49.806797,141.986755 52.489426,143.168289 
	C47.778984,145.666092 42.789154,144.742477 37.465389,144.465424 
	C37.010433,137.027100 37.090614,130.077179 36.995949,123.129646 
	C36.948116,119.619339 38.326820,117.885948 41.965233,118.001968 
	C45.270508,118.107361 48.582409,118.004761 51.891392,117.993851 
z"/>
<path fill="#294E35" opacity="1.000000" stroke="none" 
	d="
M163.928925,127.004410 
	C163.928864,121.514763 163.928864,116.523903 163.928864,111.533043 
	C167.824921,114.680031 167.817459,148.345840 163.928970,151.454758 
	C163.928970,143.470901 163.928970,135.487045 163.928925,127.004410 
z"/>
<path fill="#294E35" opacity="1.000000" stroke="none" 
	d="
M79.229179,118.870636 
	C80.158447,118.545609 81.719841,118.612602 81.720459,118.691826 
	C81.786697,127.146004 81.752838,135.601364 81.626595,144.055176 
	C81.621788,144.377045 80.658394,144.684601 79.132629,145.612488 
	C79.132629,136.285721 79.132629,127.777046 79.229179,118.870636 
z"/>
<path fill="#294E35" opacity="1.000000" stroke="none" 
	d="
M51.607281,117.693642 
	C48.582409,118.004761 45.270508,118.107361 41.965233,118.001968 
	C38.326820,117.885948 36.948116,119.619339 36.995949,123.129646 
	C37.090614,130.077179 37.010433,137.027100 36.999046,144.436768 
	C36.639645,139.726593 35.916950,134.549957 35.997631,129.385880 
	C36.225903,114.775375 32.996693,117.166618 48.904678,116.984306 
	C49.709175,116.975082 50.516933,117.250526 51.607281,117.693642 
z"/>
<path fill="#000000" opacity="1.000000" stroke="none" 
	d="
M89.067947,41.372154 
	C95.625587,43.639606 102.292297,43.061211 109.159790,41.388317 
	C111.123978,40.909851 113.626053,42.639530 115.931702,43.727509 
	C111.652313,44.090282 107.124611,43.274422 103.042435,44.275414 
	C97.749161,45.573391 93.433922,44.699520 89.067947,41.372154 
z"/>
<path fill="#000000" opacity="1.000000" stroke="none" 
	d="
M86.436508,25.738796 
	C87.567093,30.617386 88.317856,35.457554 89.013664,40.692924 
	C84.618156,36.422844 83.389412,29.907555 86.436508,25.738796 
z"/>
<path fill="#000000" opacity="1.000000" stroke="none" 
	d="
M87.639824,24.101799 
	C87.740082,24.530802 87.509453,25.088545 87.007011,25.793980 
	C86.926445,25.371294 87.117691,24.800915 87.639824,24.101799 
z"/>
<path fill="#000000" opacity="1.000000" stroke="none" 
	d="
M112.416641,164.263519 
	C115.915283,164.167236 117.443810,166.050690 116.827164,168.875504 
	C116.558083,170.108139 114.508865,171.793610 113.314697,171.756897 
	C112.001656,171.716522 109.806770,170.020523 109.698433,168.883621 
	C109.565742,167.491119 111.199554,165.930298 112.416641,164.263519 
z"/>
<path fill="#000000" opacity="1.000000" stroke="none" 
	d="
M215.535309,170.838654 
	C213.003937,171.102081 210.823303,171.504135 208.642670,171.906204 
	C213.755447,165.362640 216.512085,165.496552 221.443665,172.227692 
	C219.073730,171.694489 217.479889,171.335907 215.535309,170.838654 
z"/>
<path fill="#000000" opacity="1.000000" stroke="none" 
	d="
M228.640106,170.338409 
	C225.181885,172.910843 223.453690,171.971695 223.291428,167.551224 
	C225.027405,168.380264 226.724319,169.190659 228.640106,170.338409 
z"/>
<path fill="#000000" opacity="1.000000" stroke="none" 
	d="
M221.365631,167.147964 
	C219.913528,166.454437 218.871078,165.869553 217.828644,165.284668 
	C218.268753,164.712891 218.708862,164.141129 219.148972,163.569351 
	C220.392868,164.776154 221.638580,165.981110 222.866638,167.203842 
	C222.889679,167.226791 222.673401,167.586960 222.619446,167.574280 
	C222.329224,167.506058 222.055023,167.369537 221.365631,167.147964 
z"/>
<path fill="#000000" opacity="1.000000" stroke="none" 
	d="
M162.049973,168.786621 
	C163.439926,166.931946 164.684036,165.148361 166.392578,164.213547 
	C166.913010,163.928772 169.582031,165.880951 169.710678,166.989273 
	C169.878922,168.438858 168.386230,171.422256 167.810867,171.373108 
	C165.853394,171.205795 163.985001,169.995789 162.049973,168.786621 
z"/>
<path fill="#000000" opacity="1.000000" stroke="none" 
	d="
M13.131710,127.555336 
	C11.972324,129.269577 11.148417,131.018906 9.770053,131.922104 
	C7.053116,133.702423 5.019608,133.198135 5.016710,129.385193 
	C5.015831,128.228302 4.750844,127.002014 5.047774,125.929604 
	C5.590566,123.969162 6.462060,122.099739 7.196466,120.192352 
	C9.145453,121.891167 11.141430,123.541176 13.001644,125.332191 
	C13.351205,125.668755 13.158823,126.568199 13.131710,127.555336 
z"/>
<path fill="#000000" opacity="1.000000" stroke="none" 
	d="
M146.680878,167.318039 
	C145.608994,169.092880 144.558197,170.982803 142.960419,171.789841 
	C142.196136,172.175888 139.665619,170.782547 139.258850,169.698441 
	C138.810440,168.503296 139.418243,166.283356 140.377548,165.308487 
	C143.062759,162.579727 144.945129,164.541214 146.680878,167.318039 
z"/>
<path fill="#000000" opacity="1.000000" stroke="none" 
	d="
M118.293655,35.415615 
	C123.015251,36.850986 127.769325,37.230309 132.898590,35.339123 
	C135.025635,34.554871 137.935425,35.893497 140.688171,36.583260 
	C137.171799,37.128616 133.438690,37.690796 129.746124,37.493568 
	C125.967072,37.291718 122.227753,36.345718 118.293655,35.415615 
z"/>
<path fill="#000000" opacity="1.000000" stroke="none" 
	d="
M147.122986,58.930885 
	C143.547302,60.665005 139.546600,62.334251 135.266602,64.278343 
	C137.491989,59.777012 142.694580,60.556187 147.122986,58.930885 
z"/>
<path fill="#000000" opacity="1.000000" stroke="none" 
	d="
M149.012238,47.475567 
	C151.576523,50.805698 150.497055,54.400600 148.237427,58.248741 
	C148.332596,55.005386 148.669724,51.462547 149.012238,47.475567 
z"/>
<path fill="#000000" opacity="1.000000" stroke="none" 
	d="
M28.717525,128.611664 
	C27.037987,129.450424 25.625816,130.011780 24.213642,130.573135 
	C23.805914,129.242355 23.152832,127.930344 23.049288,126.576302 
	C22.902437,124.655914 23.160410,122.704567 23.244751,120.780983 
	C29.318361,120.937630 30.752779,122.963806 28.717525,128.611664 
z"/>
<path fill="#000000" opacity="1.000000" stroke="none" 
	d="
M58.023701,123.432541 
	C58.287663,119.348824 60.874893,119.845726 63.137310,120.294693 
	C69.237083,121.505165 73.574905,126.953201 72.768227,132.154800 
	C71.709793,138.979782 66.377045,142.542114 58.003994,141.554871 
	C58.003994,135.716293 58.003994,129.799072 58.023701,123.432541 
z"/>
<path fill="#000000" opacity="1.000000" stroke="none" 
	d="
M134.992630,124.670746 
	C136.354736,126.447929 137.397369,128.228683 138.788452,130.604599 
	C135.927216,131.113861 133.851456,131.483337 130.453369,132.088150 
	C132.317200,128.813553 133.495178,126.743935 134.992630,124.670746 
z"/>
</svg>
